<?xml version="1.0" encoding="UTF-8" standalone="no"?>
<!DOCTYPE svg PUBLIC "-//W3C//DTD SVG 1.1//EN" "http://www.w3.org/Graphics/SVG/1.1/DTD/svg11.dtd">
<svg width="100%" height="100%" viewBox="0 0 512 250" version="1.1" xmlns="http://www.w3.org/2000/svg" xmlns:xlink="http://www.w3.org/1999/xlink" xml:space="preserve" xmlns:serif="http://www.serif.com/" style="fill-rule:evenodd;clip-rule:evenodd;stroke-linejoin:round;stroke-miterlimit:2;">
    <g>
        <g transform="matrix(1.26928,0,0,1.26928,-132.938,-186.639)">
            <path d="M104.735,198.169L113.748,198.169L113.748,186.736C113.748,175.788 116.084,167.711 120.757,162.504C125.43,157.296 131.972,154.693 140.384,154.693C144.656,154.693 148.295,155.527 151.299,157.196C154.303,158.865 156.539,160.701 158.008,162.704L149.196,175.922C147.861,173.652 146.292,172.217 144.489,171.616C142.687,171.015 140.985,170.715 139.382,170.715C136.445,170.715 134.109,172.05 132.373,174.72C130.637,177.39 129.769,182.063 129.769,188.739L129.769,198.169L150.798,198.169L150.798,213.19L129.769,213.19L129.769,290.294L113.748,290.294L113.748,213.19L104.735,213.19L104.735,198.169Z" style="fill:white;fill-rule:nonzero;"/>
            <path d="M212.882,215.793C210.746,214.191 208.81,213.023 207.074,212.288C205.339,211.554 203.136,211.187 200.465,211.187C194.457,211.187 190.385,213.356 188.249,217.696C186.113,222.035 185.045,227.542 185.045,234.218L185.045,290.294L169.023,290.294L169.023,198.169L185.045,198.169L185.045,208.784C187.581,204.912 190.585,201.841 194.057,199.571C197.528,197.301 201,196.166 204.471,196.166C207.809,196.166 210.913,196.6 213.784,197.468C216.654,198.336 219.291,200.038 221.694,202.575L212.882,215.793Z" style="fill:white;fill-rule:nonzero;"/>
            <path d="M237.716,166.758C237.716,163.687 238.818,161.084 241.021,158.948C243.224,156.811 245.794,155.743 248.731,155.743C251.802,155.743 254.405,156.811 256.542,158.948C258.678,161.084 259.746,163.687 259.746,166.758C259.746,169.696 258.678,172.266 256.542,174.469C254.405,176.672 251.802,177.773 248.731,177.773C245.794,177.773 243.224,176.672 241.021,174.469C238.818,172.266 237.716,169.696 237.716,166.758ZM240.72,198.169L256.742,198.169L256.742,290.294L240.72,290.294L240.72,198.169Z" style="fill:white;fill-rule:nonzero;"/>
            <path d="M283.578,296.302L299.8,296.302C299.8,300.708 301.002,304.814 303.405,308.619C305.809,312.424 309.213,315.495 313.619,317.832C318.025,320.168 323.232,321.336 329.24,321.336C333.913,321.336 338.52,320.202 343.059,317.932C347.599,315.662 351.37,312.091 354.375,307.217C357.379,302.344 358.881,296.035 358.881,288.292L358.881,274.473C355.543,280.214 351.17,284.62 345.763,287.691C340.355,290.762 334.247,292.297 327.438,292.297C319.16,292.297 311.55,290.361 304.607,286.489C297.664,282.617 292.123,277.076 287.984,269.867C283.845,262.657 281.776,254.112 281.776,244.232C281.776,234.218 283.845,225.64 287.984,218.497C292.123,211.354 297.664,205.846 304.607,201.974C311.55,198.102 319.16,196.166 327.438,196.166C334.247,196.166 340.355,197.702 345.763,200.773C351.17,203.844 355.543,208.25 358.881,213.991L358.881,198.169L374.902,198.169L374.902,288.292C374.902,298.839 372.699,307.685 368.293,314.828C363.887,321.971 358.213,327.345 351.27,330.95C344.328,334.554 336.984,336.357 329.24,336.357C320.295,336.357 312.384,334.688 305.508,331.35C298.632,328.012 293.258,323.306 289.386,317.231C285.514,311.156 283.578,304.18 283.578,296.302ZM297.998,244.232C297.998,251.308 299.433,257.316 302.304,262.256C305.174,267.196 309.013,270.935 313.819,273.471C318.626,276.008 323.833,277.277 329.441,277.277C334.114,277.277 338.72,276.008 343.259,273.471C347.799,270.935 351.537,267.196 354.475,262.256C357.412,257.316 358.881,251.308 358.881,244.232C358.881,237.155 357.412,231.147 354.475,226.207C351.537,221.267 347.799,217.529 343.259,214.992C338.72,212.455 334.114,211.187 329.441,211.187C323.833,211.187 318.626,212.455 313.819,214.992C309.013,217.529 305.174,221.267 302.304,226.207C299.433,231.147 297.998,237.155 297.998,244.232Z" style="fill:white;fill-rule:nonzero;"/>
        </g>
        <g id="SVG" transform="matrix(1.60525,0,0,1.60525,42.9776,-332.151)">
            <g id="Orange">
                <g>
                    <path id="Fill-1" d="M287.641,292.215C280.197,313.759 256.698,325.189 235.154,317.745C213.611,310.302 202.183,286.803 209.627,265.26C217.071,243.717 238.457,238.393 260.001,245.837C281.544,253.281 295.085,270.672 287.641,292.215" style="fill:rgb(244,124,74);"/>
                    <path id="Fill-3" d="M272.18,251.69C281.892,260.632 286.202,273.059 281.271,287.33C273.828,308.871 250.331,320.302 228.788,312.859C225.796,311.825 223.023,310.456 220.444,308.85C224.551,312.7 229.492,315.787 235.156,317.745C256.699,325.188 280.196,313.757 287.639,292.216C293.546,275.121 286.213,260.661 272.18,251.69" style="fill:rgb(221,91,54);"/>
                    <path id="Fill-5" d="M259.173,248.237C242.284,242.402 219.804,243.577 212.025,266.089C205.051,286.274 215.8,308.373 235.985,315.347C256.17,322.322 278.266,311.572 285.241,291.387C293.02,268.874 276.06,254.072 259.173,248.237M234.327,320.145C211.496,312.257 199.339,287.26 207.227,264.431C214.522,243.317 236.064,234.881 260.831,243.439C285.596,251.996 297.334,271.931 290.039,293.045C282.151,315.874 257.159,328.034 234.327,320.145" style="fill:white;"/>
                    <path id="Fill-8" d="M251.036,271.787C241.598,268.526 239.303,262.244 239.211,261.975C238.748,260.656 239.445,259.207 240.768,258.743C242.091,258.279 243.542,258.977 244.002,260.301C244.056,260.441 245.722,264.58 252.694,266.989C259.666,269.398 263.532,267.17 263.692,267.072C264.883,266.361 266.438,266.724 267.169,267.906C267.897,269.086 267.562,270.622 266.394,271.368C266.155,271.522 260.472,275.047 251.036,271.787" style="fill:white;"/>
                    <path id="Fill-10" d="M251.033,271.783C250.009,271.429 249.291,270.445 249.328,269.304C249.357,268.467 250.222,248.709 269.214,240.112C270.491,239.533 271.995,240.1 272.574,241.377C273.15,242.656 272.585,244.158 271.306,244.737C255.243,252.007 254.428,268.767 254.403,269.478C254.35,270.875 253.174,271.97 251.775,271.921C251.515,271.912 251.266,271.864 251.033,271.783" style="fill:white;"/>
                    <path id="Fill-12" d="M233.377,233.754C262.703,234.542 254.043,255.563 254.043,255.563C254.043,255.563 232.589,263.081 233.377,233.754" style="fill:rgb(59,183,119);"/>
                    <path id="Fill-14" d="M233.377,233.754L254.043,255.563C254.043,255.563 232.589,263.081 233.377,233.754" style="fill:rgb(34,152,87);"/>
                    <path id="Fill-16" d="M235.905,236.421C236.067,244.058 237.969,249.253 241.573,251.882C245.253,254.576 249.931,253.961 252.059,253.477C252.647,251.371 253.51,246.682 251.019,242.884C248.579,239.159 243.501,236.991 235.905,236.421M242.515,258.032C241.183,257.572 239.851,256.91 238.582,255.983C233.153,252.023 230.546,244.522 230.84,233.685C230.858,233.012 231.143,232.372 231.63,231.912C232.12,231.45 232.773,231.198 233.444,231.215C244.28,231.511 251.632,234.513 255.296,240.145C260.042,247.446 256.543,256.16 256.39,256.531C256.114,257.199 255.567,257.716 254.882,257.957C254.575,258.063 248.55,260.117 242.515,258.032" style="fill:white;"/>
                    <path id="Fill-18" d="M239.066,278.298C229.587,275.023 226.9,266.527 226.787,266.155C226.481,265.15 227.048,264.086 228.053,263.781C229.055,263.474 230.115,264.037 230.427,265.039C230.522,265.34 232.859,272.44 241.036,274.935C242.084,275.16 242.618,276.295 242.318,277.303C242.019,278.309 240.958,278.885 239.953,278.583C239.651,278.495 239.354,278.398 239.066,278.298" style="fill:rgb(255,181,150);"/>
                    <path id="Fill-20" d="M229.57,257.322C230.271,258.504 229.882,260.032 228.698,260.732C227.515,261.435 225.988,261.044 225.287,259.862C224.587,258.68 224.975,257.152 226.16,256.45C227.342,255.749 228.869,256.14 229.57,257.322" style="fill:rgb(255,181,150);"/>
                </g>
            </g>
        </g>
    </g>
</svg>
